<?xml version="1.0" encoding="UTF-8"?>
<svg width="99.26mm" height="31.02mm" version="1.1" viewBox="0 0 351.7 109.9" xmlns="http://www.w3.org/2000/svg" xmlns:cc="http://creativecommons.org/ns#" xmlns:dc="http://purl.org/dc/elements/1.1/" xmlns:rdf="http://www.w3.org/1999/02/22-rdf-syntax-ns#">
<title>Assassin's Creed Origins logo</title>
 <metadata>
  <rdf:RDF>
   <cc:Work rdf:about="">
    <dc:format>image/svg+xml</dc:format>
    <dc:type rdf:resource="http://purl.org/dc/dcmitype/StillImage"/>
    <dc:title/>
   </cc:Work>
  </rdf:RDF>
 </metadata>
 <g transform="translate(393.6 -291.7)">
  <g transform="matrix(.2054 0 0 .2042 -312.8 232.1)">
   <path d="m-287.1 826.5c-45.85-2.509-78.78-27.7-90.9-69.55-14.04-48.46 8.353-99.83 51.98-119.2 16.34-7.27 39.99-10.66 60.68-8.708 19.42 1.837 33.92 6.182 48.22 14.44 8.497 4.911 23.53 19.77 28.45 28.12 17.92 30.42 17.13 75.86-1.861 107.6-18.83 31.5-55.64 49.54-96.56 47.3zm27.5-12.31c8.483-1.316 21.17-7.554 27.28-13.41 5.888-5.647 11.66-14.44 15.07-22.96 5.832-14.57 8.656-39.06 6.725-58.32-3.587-35.79-18.28-60.74-42.19-71.66-10.76-4.913-16.81-6.134-29.88-6.03-32.57 0.259-53.73 16.62-62.12 48.03-2.998 11.22-3.775 38.27-1.484 51.7 3.888 22.81 13.91 42.67 27.86 55.21 15.68 14.1 37.86 20.68 58.75 17.44zm744.7 12.03c-50.38-4.876-84.81-29.34-96.1-68.27-7.268-25.08-5.127-52.57 5.862-75.24 14.71-30.35 42.59-48.9 80.54-53.58 12.87-1.588 42.82-0.561 60 2.057 7.425 1.131 16.88 2.533 21 3.114 4.125 0.5816 7.815 1.361 8.199 1.732 0.3846 0.3712 0.1596 11.25-0.5 24.18-0.9908 19.41-1.454 23.5-2.663 23.5-0.996 0-1.98-2.274-3.08-7.122-3.227-14.21-11.36-22.77-27.96-29.42-11.38-4.56-19.12-6.072-34.06-6.65-18.71-0.7235-27.65 0.8849-40.88 7.353-17.11 8.364-27.87 21.96-33.16 41.9-2.7 10.18-3.719 34.48-1.952 46.56 4.355 29.79 20.18 54.16 43.88 67.56 14.49 8.196 37.23 12.56 54.45 10.46 10.15-1.241 13.98-2.948 15.65-6.959 1.896-4.577 1.088-63.65-0.9252-67.68-2.016-4.032-7.054-6.305-15.77-7.115-5.091-0.4732-7.232-1.074-7.232-2.029 0-1.118 6.677-1.356 38-1.356 31.4 0 38 0.2365 38 1.362 0 0.9088-1.86 1.581-5.586 2.019-3.072 0.3611-6.81 1.289-8.305 2.063-5.395 2.79-5.587 4.135-5.862 41.06-0.1397 18.7-0.4948 35.05-0.7893 36.33-0.9954 4.333-18.64 10.63-36.66 13.09-11.14 1.518-33.89 2.081-44.1 1.093zm749.3-0.1246c-13.24-1.036-25.94-4.701-28.98-8.366-1.674-2.017-0.8093-40.17 0.986-43.52 1.645-3.073 3.998-0.7682 3.998 3.917 0 9.842 6.221 23.67 13.12 29.16 7.456 5.937 12.22 7.317 25.38 7.356 10.2 0.0301 12.69-0.2851 16.6-2.1 6.1-2.83 11.36-7.568 14.68-13.22 2.461-4.186 2.712-5.539 2.712-14.61 0-8.983-0.2914-10.59-2.867-15.84-3.798-7.734-12.43-16.79-26.56-27.86-30.48-23.89-42.22-40.33-43.75-61.3-1.038-14.25 2.957-24.98 13.06-35.06 6.592-6.584 14.81-11.12 25.11-13.87 12.92-3.442 34.03-2.969 50.34 1.128l6.352 1.596-0.7042 19.1c-0.3872 10.51-1.066 19.49-1.509 19.97-1.5 1.609-2.692-0.2872-3.275-5.214-1.236-10.44-9.063-21.18-18.51-25.41-6.404-2.867-19.9-3.547-27.36-1.379-12.41 3.608-19.16 12.47-19.14 25.14 0.01 5.233 0.6002 8.262 2.35 12 3.084 6.59 13.42 16.77 28.95 28.51 31.14 23.54 42.54 39.82 43.76 62.49 0.6011 11.15-0.827 18.36-5.473 27.65-10.97 21.93-35.35 32.39-69.29 29.74zm-179.7-3.756c-7.469-5.973-99.72-99.27-119.3-120.6-9.568-10.45-18.02-19.15-18.77-19.33-1.118-0.2695-1.273 1.319-0.8327 8.5 0.2979 4.857 1.017 29.76 1.598 55.33 1.103 48.54 1.941 60.16 4.756 66 2.156 4.47 7.158 6.996 13.86 6.998 6.054 2e-3 8.332 0.7017 8.332 2.559 0 1.099-6.189 1.341-33.98 1.329-31.48-0.0134-36.83-0.4118-34.66-2.583 0.3094-0.3094 3.948-0.8941 8.086-1.299 12.9-1.263 13.58-2.691 14.61-30.48 0.4274-11.56 1.043-45.33 1.369-75.03 0.6528-59.55 1.386-83.58 2.612-85.56 1.414-2.288 4.066-0.0228 20.54 17.54 8.757 9.338 31.9 33.33 51.42 53.32s43.98 45.2 54.33 56.02c10.36 10.82 19.48 19.83 20.28 20.01 1.227 0.279 1.363-1.695 0.8993-13-0.3008-7.331-0.9991-34.93-1.552-61.33s-1.465-50.25-2.026-53c-1.806-8.841-5.406-11.45-16.9-12.24-5.829-0.3995-8.035-0.9233-8.035-1.908 0-0.7464 0.9-1.385 2-1.419s15.5-0.0615 32-0.0615 30.68 0.0277 31.5 0.0615 1.5 0.674 1.5 1.423c0 0.9286-1.827 1.53-5.75 1.894-12.81 1.187-14.31 3.605-15.34 24.68-0.4181 8.56-1.289 48.64-1.935 89.06-0.6565 41.06-1.587 74.27-2.109 75.25-1.39 2.605-3.167 2.163-8.524-2.12zm-1121-0.32c-0.9697-1.569 0.1852-1.998 7.568-2.808 3.886-0.4266 7.807-1.39 8.712-2.14 3.019-2.504 4.414-7.898 5.35-20.69 1.141-15.59 1.19-134.7 0.0603-145.5-1.209-11.52-4.21-14.09-18.07-15.46-4.125-0.4073-7.5-1.19-7.5-1.74 0-1.313 55.71-2.753 76.99-1.991 19.13 0.6853 28.47 2.409 38.51 7.108 16.32 7.637 25 23.32 23.73 42.84-0.9902 15.21-8.076 28.31-23.4 43.28-6.255 6.109-9.2 9.667-8.691 10.5 1.45 2.374 27.72 35.25 37.76 47.26 21.77 26.03 33.12 34.68 47.6 36.28 5.022 0.555 6.55 1.108 6.811 2.465 0.3107 1.617-1.104 1.75-18.6 1.75-10.42 0-21.33-0.4534-24.25-1.008-16.63-3.153-25.42-11.71-55.61-54.14-8.474-11.91-15.96-22.09-16.63-22.63-1.738-1.392-27.38-2.155-28.68-0.8542-1.289 1.289-1.316 27.28-0.0498 48.89 1.32 22.53 2.602 24.57 16.08 25.49 8.088 0.5544 10.61 1.351 9.576 3.026-0.8111 1.312-76.45 1.357-77.26 0.0453zm88.62-91.85c7.541-3.872 13.62-12.59 16.5-23.65 1.953-7.497 1.953-25.14 0-32.64-3.244-12.46-11.19-22.41-21.78-27.3-5.506-2.542-7.558-2.911-17.82-3.204-9.747-0.2788-11.86-0.0681-13.25 1.32-1.481 1.481-1.652 5.796-1.652 41.65 0 24.65 0.3822 40.71 0.9964 41.86 2.532 4.732 28.89 6.138 37 1.974zm180.4 91.81c-0.895-1.448-0.0946-1.738 7.41-2.68 3.899-0.4896 7.574-1.19 8.166-1.556 5.353-3.308 6.246-18.92 5.871-102.6-0.297-66.12-0.3754-68.58-2.307-72.45-2.388-4.777-4.962-6.147-13.53-7.204-3.723-0.4595-6.242-1.218-5.96-1.796 0.717-1.464 73.2-1.362 73.69 0.1039 0.2273 0.6821-1.948 1.346-5.692 1.737-7.907 0.8265-11.78 2.92-13.82 7.475-1.469 3.277-1.687 10.92-1.98 69.18-0.3578 71.13 0.3996 95.46 3.136 100.7 2.306 4.438 4.574 5.393 14.81 6.241 9.074 0.7516 10.49 1.181 9.442 2.871-0.7746 1.253-78.47 1.196-79.24-0.0581zm490-0.0302c-0.9278-1.501 0.309-1.938 7.824-2.763 9.017-0.9898 11.28-3.107 12.51-11.7 0.4543-3.18 0.826-40.88 0.826-83.78 0-84.78 0.2142-81.44-5.509-85.68-1.549-1.145-5.088-2.096-9.25-2.484-4.696-0.4386-6.741-1.041-6.741-1.985 0-1.116 6.532-1.355 37-1.355 30.5 0 37 0.2386 37 1.358 0 0.9235-1.926 1.559-6.025 1.987-3.314 0.3464-7.3 1.289-8.859 2.095-5.752 2.975-5.616 0.7978-5.616 89.56 0 76.45 0.1115 81.72 1.798 85.11 2.347 4.714 5.361 5.999 15.88 6.774 8.763 0.6453 11.37 1.537 8.927 3.049-1.796 1.11-79.07 0.9259-79.76-0.1898z" fill="#ba963d"/>
   <path d="m215.9 603.7c-21.69-4.08-36.2-15.84-42.56-34.5-3.158-9.264-3.169-24.88-0.0243-34 5.57-16.16 16.88-26.84 34.08-32.16 6.493-2.01 9.513-2.313 22.5-2.258 9.929 0.042 18.08 0.6566 24.1 1.818l9.104 1.754-0.4688 12.17c-0.4961 12.88-1.559 16.69-2.643 9.466-1.915-12.77-12.93-19.29-32.6-19.29-13.8 0-19.58 1.939-26.51 8.903-8.572 8.617-11.44 16.92-11.44 33.1 0 16.36 3.193 25.33 12.65 35.54 7.682 8.298 17.15 12.93 27.92 13.67 9.277 0.6341 17.91-0.9125 22.55-4.042 3.864-2.604 7.753-8.036 8.533-11.92 0.3039-1.512 1.004-2.75 1.557-2.75 1.168 0 0.3362 8.983-1.53 16.53-0.8958 3.622-1.898 5.272-3.734 6.15-6.887 3.294-28.6 4.249-41.49 1.824zm451.5-0.4648c-9.075-0.2957-15.68-0.8752-14.67-1.288 1.008-0.4125 2.91-0.75 4.227-0.75 1.5 0 3.058-1.011 4.168-2.705 1.629-2.486 1.773-6.261 1.773-46.59v-43.88l-2.361-1.913c-1.407-1.14-3.909-1.913-6.191-1.913-2.107 0-4.108-0.45-4.448-1-0.8168-1.322 54.5-1.309 64 0.0145 28.84 4.016 44.9 21.36 44.9 48.49 0 20.28-10.2 37.69-26.85 45.84-13.56 6.639-19.51 7.164-64.56 5.696zm50.46-6.941c10.36-3.64 17.56-10.68 21.08-20.6 2.314-6.516 3.133-24.86 1.447-32.44-3.767-16.93-15.76-28.9-33.63-33.55-7.639-1.99-24.68-2.049-26.3-0.092-0.8688 1.047-1.096 11.99-0.8725 41.97 0.2987 40.02 0.3311 40.59 2.462 42.72 1.188 1.187 4.338 2.775 7 3.528 6.515 1.844 21.46 1.047 28.81-1.536zm-409.8 5.669c-0.6738-0.4279-0.1129-0.7468 1.343-0.7636 4.484-0.052 6.734-1.124 8.047-3.836 1.467-3.028 2.707-71.3 1.5-82.57-0.896-8.367-2.003-9.737-8.36-10.35-11.78-1.132-2.681-1.857 21.51-1.713 24.02 0.1434 26.2 0.3069 31.5 2.361 9.609 3.727 14.82 11.41 14.8 21.83-0.0134 7.944-3.438 14.87-11.46 23.18l-6.477 6.709 10.02 12.44c20.06 24.93 25.41 29.95 34.74 32.63 4.424 1.271 3.988 1.322-7.49 0.8844-9.564-0.365-13.03-0.896-16.11-2.468-5.16-2.632-11.39-9.676-22.92-25.89l-9.444-13.29-15.34 0.5812-0.2889 9.353c-0.3675 11.9 1.146 25.93 2.995 27.78 0.778 0.778 3.761 1.692 6.629 2.032 2.868 0.3396 4.964 0.8681 4.657 1.174-0.8411 0.8411-38.5 0.7693-39.84-0.076zm46.44-48.05c5.32-3.583 8.172-9.742 8.695-18.77 0.5474-9.456-1.457-16.28-6.07-20.65-5.336-5.063-8.998-6.411-16.52-6.081l-6.713 0.2948v45.91l2.5 0.6954c1.375 0.3825 5.246 0.7403 8.602 0.7951 4.812 0.0786 6.82-0.3842 9.5-2.189zm81.74 48.18c-0.5498-0.3343 0.8903-0.8613 3.2-1.171 2.31-0.3098 4.614-0.9776 5.12-1.484 2.232-2.232 2.913-15.8 2.633-52.49-0.3332-43.65 0.0712-41.56-8.192-42.49-2.532-0.2854-4.603-0.8549-4.603-1.266 0-0.4107 12.94-0.6897 28.75-0.62 15.81 0.0698 30.02-0.2267 31.57-0.6589l2.817-0.7858-0.5311 4.286c-0.2921 2.357-0.8052 6.879-1.14 10.05-0.59 5.582-2.462 7.187-2.462 2.112 0-6.637-3.975-8.375-19.15-8.375h-10.85v37.15l13.4-0.3275c11.05-0.2701 13.74-0.6342 15.33-2.078 2.712-2.459 3.514-2.184 2.912 1-0.2858 1.512-0.8102 6.24-1.165 10.51-0.3556 4.272-1.056 7.502-1.56 7.191-0.5028-0.3107-0.9141-1.819-0.9141-3.351 0-5.331-2.845-6.555-16.16-6.953l-11.96-0.3571 0.3093 20.07c0.2599 16.87 0.567 20.33 1.925 21.69 2.135 2.132 12.75 3.368 20.71 2.412 7.338-0.8803 10.79-3.412 11.77-8.63 0.3458-1.843 1.1-3.642 1.675-3.998 1.291-0.7981 0.275 13.1-1.252 17.11l-1.025 2.696-30.08-0.3197c-16.54-0.1758-30.53-0.5932-31.08-0.9274zm109.5-0.1422c-0.2579-0.4125 0.8578-0.75 2.479-0.75 1.622 0 4.011-0.8599 5.309-1.911l2.361-1.911 0.2897-44.1 0.2897-44.1-2.494-2.494c-1.837-1.837-3.56-2.494-6.54-2.494-2.225 0-4.045-0.4453-4.045-0.9896 0-0.6426 9.029-0.7814 25.75-0.3958 14.93 0.3443 28.19 0.1892 31.56-0.369l5.814-0.9629-0.6796 9.109c-0.6525 8.746-2.448 14.52-2.448 7.864 0-1.881-0.969-4.271-2.412-5.95-2.41-2.803-2.423-2.806-15.25-2.806h-12.84v36h13.65c12.23 0 13.88-0.2077 15.9-2l2.252-2-0.6402 5.5c-0.3521 3.025-0.6441 7.862-0.6489 10.75-5e-3 2.888-0.4587 5.25-1.009 5.25-0.55 0-1-0.8788-1-1.953 0-7.112-4.748-9.325-19-8.858l-9.5 0.3112-0.276 15.23c-0.4904 27.07 0.286 28.4 16.6 28.44 12.59 0.0298 15.91-1.475 18.15-8.221 1.734-5.234 1.855-5.456 2.571-4.74 0.9067 0.9067-1.436 16.95-2.696 18.47-0.973 1.172-6.272 1.362-31.1 1.116-16.46-0.1634-30.14-0.6345-30.4-1.047zm-939.4-51.75c0-0.664 83.67-1 249-1s249 0.336 249 1-83.67 1-249 1-249-0.336-249-1zm1212 0c0-0.664 84-1 250-1s250 0.336 250 1-84 1-250 1-250-0.336-250-1zm-939-40.89c0-1.243 2.585-2.106 6.332-2.113 9.581-0.0169 16.8-5.36 22.12-16.36 1.896-3.921 18.96-49.43 37.92-101.1 18.96-51.7 34.88-95.07 35.36-96.37 0.7469-1.995 2.206 1.178 9.2 20 12.74 34.29 31.93 83.35 44.73 114.4 28.39 68.82 33.18 77.16 45.33 78.95 8.038 1.18 10 1.697 10 2.633 0 0.5395-11.95 0.9205-28.86 0.9205h-28.86l-16.02-45.5h-78.75l-15.76 45.5h-21.37c-11.87 0-21.37-0.3968-21.37-0.893zm132-59.37c-6.772-19.33-32.09-90.8-33.04-93.25-0.9372-2.431-1.322-2.704-2.03-1.44-0.48 0.8577-8.382 23.13-17.56 49.5-9.178 26.37-16.9 48.5-17.16 49.19-0.3751 0.9857 7.148 1.25 35.58 1.25h36.05l-1.839-5.25zm900.4 58.85c-10.18-1.703-16.02-3.315-20.74-5.728l-3.756-1.916 0.015-19.73c0.01-10.85 0.4081-20.35 0.8882-21.11 1.504-2.374 3.096-0.1842 3.096 4.256 0 2.343 0.7221 6.691 1.605 9.663 4.18 14.08 15.36 22.24 34.26 25 20.8 3.041 38.66-4.881 45.74-20.29 2.55-5.548 2.873-7.369 2.885-16.27 0.013-9.296-0.2189-10.49-3.208-16.5-4.71-9.47-9.379-14.31-29.08-30.12-24.04-19.3-31.56-26.09-38.34-34.61-11.24-14.13-15.38-27.81-13.02-43 3.197-20.59 17.02-35.05 39.16-40.97 11.44-3.06 36.05-2.251 54.98 1.806l5.025 1.078-0.03 18.17c-0.03 18.13-0.6012 20.08-2.83 9.649-1.646-7.699-4.212-11.41-10.35-14.95-14.47-8.349-36.7-10.15-50.42-4.08-6.194 2.74-12.81 9.312-15.37 15.27-1.871 4.35-2.159 6.493-1.798 13.38 0.8522 16.24 7.976 25.22 36.3 45.8 29.73 21.6 41.91 33.48 49.36 48.18 4.293 8.471 5.446 14.13 4.958 24.34-0.3738 7.82-0.8903 9.849-4.262 16.74-3.085 6.305-5.718 9.704-13.45 17.36-10.72 10.62-18.14 14.99-29.82 17.56-9.646 2.119-31.97 2.666-41.79 1.023zm-818.7-41.65c-10.15-1.403-17.68-4.524-18.46-7.654-0.7009-2.793 0.3831-29.46 1.294-31.83 1.087-2.832 2.167-1.407 2.872 3.788 2.576 18.99 13.76 28.79 31.4 27.52 22.65-1.626 30.53-24.01 15.29-43.42-1.494-1.902-8.256-8.008-15.03-13.57-14.9-12.23-23.18-21.07-27.11-28.94-7.715-15.44-6.351-31.89 3.554-42.85 8.441-9.344 18.72-13.28 34.87-13.37 11.24-0.0588 23.29 1.684 25.81 3.736 1.148 0.9322 1.297 3.742 0.7989 15.07-0.3893 8.851-1.019 14.05-1.728 14.29-0.639 0.2112-1.398-1.396-1.776-3.762-2.06-12.88-12.09-21.22-25.58-21.26-14.65-0.0432-24.06 9.157-22.8 22.29 0.9009 9.376 4.465 13.43 30.52 34.74 11.04 9.029 19.02 18.71 22.48 27.29 1.841 4.557 2.227 7.472 2.248 17 0.023 10.39-0.2308 12.05-2.635 17.18-5.006 10.68-13.84 18.17-25.84 21.9-7.236 2.252-21.17 3.116-30.18 1.87zm106.1 0.0593c-3.052-0.4868-8.114-1.845-11.25-3.018-4.405-1.648-5.844-2.708-6.336-4.667-0.832-3.315 0.5477-30.35 1.649-32.31 1.05-1.87 1.35-1.142 3.016 7.33 3.137 15.95 11.07 23.49 25.73 24.45 25.34 1.655 35.91-22.89 18.94-44.01-1.662-2.068-7.562-7.53-13.11-12.14-25.35-21.05-33.94-35.29-32.24-53.49 2.01-21.52 20.5-34.37 47.15-32.78 5.5 0.3291 12.48 1.179 15.5 1.888l5.5 1.29v14.64c0 8.051-0.362 15-0.8044 15.44-1.096 1.095-2.657-1.583-2.702-4.638-0.0999-6.699-7.889-16.76-14.86-19.19-2.001-0.6974-6.789-1.248-10.64-1.224-13.6 0.085-21.5 7.399-21.5 19.89 0 3.07 0.6481 7.133 1.44 9.028 1.983 4.746 9.229 12.28 20.95 21.79 23.27 18.88 30.57 29.67 32.24 47.68 1.43 15.38-7.212 32.08-20.05 38.73-9.815 5.086-26.03 7.308-38.64 5.297zm243.4-6e-3c-7.898-1.157-15.31-3.96-16.9-6.387-1.169-1.784-1.321-4.984-0.8055-16.93 0.4032-9.334 1.098-15.36 1.898-16.46 1.407-1.925 1.091-2.804 3.288 9.134 2.635 14.32 12.31 22.49 26.76 22.59 10.98 0.0787 18.98-4.466 23.58-13.4 1.672-3.246 1.951-5.273 1.581-11.5-0.7222-12.17-4.51-17.67-22.73-33.01-6.482-5.458-14.08-12.49-16.88-15.63-16.28-18.27-18.42-41.24-5.187-55.72 10.97-12.01 27.37-16.03 49.57-12.16 4.854 0.8465 9.3 1.932 9.881 2.412 1.405 1.162 0.4684 29.25-0.9913 29.73-0.5757 0.1904-1.596-2.248-2.268-5.419-2.642-12.47-11.75-19.76-24.68-19.76-13.32 0-21.46 6.724-22.3 18.44-0.7936 10.97 3.427 16.89 24.02 33.69 24.01 19.58 31.78 32.89 30.54 52.28-0.6534 10.2-3.718 17.79-9.914 24.57-10.56 11.56-28.21 16.48-48.45 13.51zm105.1 0.4418c-1.1-0.2544-4.475-0.9615-7.5-1.571-3.025-0.6097-7.188-1.964-9.25-3.01l-3.75-1.902 0.1085-11.23c0.1365-14.13 1.096-23.32 2.392-22.91 0.55 0.1754 1.516 3.117 2.148 6.537 2.182 11.82 6.473 18.46 14.85 22.97 5.809 3.13 20.22 3.106 26.12-0.0438 14.4-7.68 16.31-26.52 4.152-40.98-1.94-2.308-8.87-8.734-15.4-14.28-14.64-12.44-21.54-20.32-26.17-29.93-8.272-17.14-4.294-36.4 9.632-46.61 8.023-5.886 15.81-7.973 29.67-7.947 11.16 0.0214 21.21 1.405 24.32 3.349 1.717 1.074 0.5373 30.41-1.2 29.83-0.5991-0.1997-1.396-2.128-1.77-4.284-1.478-8.508-6.009-14.9-13.25-18.68-5.426-2.834-17.43-3.009-22.6-0.3302-10.74 5.569-14.62 17.41-9.215 28.08 2.853 5.626 6.719 9.64 18.72 19.43 26.39 21.54 33.96 33.32 33.76 52.58-0.045 4.4-0.7564 10.15-1.581 12.77-3.738 11.89-14.04 21.9-26.53 25.77-6.387 1.979-23.18 3.438-27.66 2.402zm250.7-37.19c-19.21-20.21-42.24-44.96-51.16-55-8.925-10.04-16.46-18.25-16.75-18.25-0.6383 0 0.5797 58.62 1.662 80 0.9128 18.03 2.132 22.14 7.08 23.86 1.791 0.6244 4.963 1.135 7.048 1.135s4.07 0.45 4.41 1c0.4065 0.6577-8.046 0.9625-24.69 0.8904-17.29-0.0749-23.88-0.3829-20.81-0.9727 8.656-1.66 9.091-1.892 10.7-5.703 1.337-3.167 1.703-13.51 2.486-70.21 0.5051-36.58 1.128-67.51 1.385-68.75 0.2568-1.238 1.069-2.25 1.805-2.25s8.542 7.988 17.35 17.75c8.806 9.762 21.26 23.38 27.68 30.25 6.416 6.875 22.54 24.31 35.84 38.74 13.3 14.43 24.46 25.91 24.81 25.5 0.9835-1.144-1.036-91.04-2.178-96.97-1.158-6.01-4.304-9.2-9.259-9.388-1.713-0.0651-4.465-0.4618-6.115-0.8817s8.25-0.7705 22-0.7792c22.39-0.0142 24.4 0.1151 19.28 1.237-6.913 1.514-8.442 2.67-9.738 7.363-0.5562 2.014-1.467 32.29-2.066 68.64-0.5888 35.77-1.282 66.05-1.541 67.29-0.2894 1.384-1.206 2.25-2.38 2.25-1.211 0-14.69-13.44-36.84-36.75zm-531.4 32.64c7.39-1.23 10.88-3.299 14.08-8.358 1.522-2.4 13.7-33.09 27.07-68.2 13.37-35.11 25.04-65.41 25.93-67.33 1.039-2.238 2.443-3.616 3.892-3.822 2.781-0.3954-0.2304-7.498 29.7 70.03 13.31 34.49 25.39 64.49 26.83 66.67 3.922 5.926 9.004 9.324 16.04 10.72 5.514 1.097 3.762 1.208-16.69 1.063l-22.85-0.1619-17.44-48h-41.57l-20.19 48.5-15.05-0.1169c-12.3-0.0955-14.08-0.2781-9.753-0.9985zm83.22-59.14c0.0259-2.388-16.48-48.69-17.1-47.97-0.5833 0.6717-4.736 11.78-13.96 37.36-2.111 5.852-3.564 10.91-3.228 11.25 0.336 0.336 8.186 0.6109 17.44 0.6109 12.79 0 16.84-0.3 16.85-1.25zm284.5 59.15c2.2-0.4924 4.935-1.111 6.079-1.376 4.852-1.121 4.901-1.765 5.214-68.21 0.2509-53.36 0.081-62.69-1.202-65.76-1.629-3.898-4.65-5.563-10.1-5.563-1.857 0-3.654-0.45-3.994-1-0.4062-0.6573 8.656-1 26.44-1 14.88 0 27.06 0.3928 27.06 0.8728s-2.288 1.093-5.083 1.361c-3.406 0.3272-5.799 1.204-7.25 2.654l-2.167 2.166-0.2992 60.72c-0.1646 33.4-0.027 62.62 0.3048 64.93 0.9739 6.783 3.013 8.443 12.09 9.838 7.203 1.108 5.278 1.218-21.59 1.235-19.64 0.0128-28.16-0.2802-25.5-0.8761zm239.6-133.4c-0.1719-12.2 4.722-28.46 10.68-35.5l2.116-2.5 0.033 5.55c0.018 3.052 0.5563 6.073 1.196 6.712 0.8829 0.8829 0.1791 2.229-2.929 5.601-2.25 2.441-4.97 6.171-6.044 8.288-1.691 3.334-2.464 6.188-4.564 16.85-0.2166 1.1-0.4382-1.15-0.4924-5z" fill="#030606"/>
  </g>
 </g>
</svg>
